# xmcd
#
# Track frame offsets:
#	182
#	14490
#	29162
#	44675
#	59607
#	77817
#	91097
#	107055
#	123592
#	136257
#	155440
#	171937
#	186617
#	204685
#	217715
#	241880
#	257075
#	272075
#	288177
#	302175
#
# Disc length: 4230
#
# Revision: 12
# Processed by: cddbd v1.5.1PL0 Copyright (c) Steve Scherf et al.
# Submitted via: EasyCDDAExtractor 5.0.6
# Normalized: r11:DSETVAR1
#
DISCID=2c108414
DTITLE=Various Artist - The History Of Dance Volume 1 Number 3
DYEAR=1900
DGENRE=Blues
TTITLE0=Harold Melvin and The Bluenotes - Satisfaction Guaranteed
TTITLE1=MFSB and 3 Degrees - T.S.O.P.
TTITLE2=Tymes - Ms. Grace
TTITLE3=The Trammps - Zing went the strings of my heart
TTITLE4=Barry White - Can't get enough of your love babe
TTITLE5=Billy Paul - Thanks for saving my life
TTITLE6=The Drifters - Kissing in the back row of the movies
TTITLE7=Hamilton Bohannon - Foot Stompin' Music
TTITLE8=Blackbyrds - Walking in Rhythm
TTITLE9=Rufus feat. Chaka Khan - Once you get started
TTITLE10=Lonnie Liston Smith - Expansions
TTITLE11=Jimmy James and the Vagabonds - I'll go where your music takes me
TTITLE12=James Brown - Get up offa that thing
TTITLE13=Tina Charles - Dr. Love
TTITLE14=Tavares - Don't take away the music
TTITLE15=Stylistics - Funky Weekend
TTITLE16=Ohio Players - Who'd She Coo
TTITLE17=Gladys Knight and The Pips - Midnight Train to Georgia
TTITLE18=Tina Charles - Dance Little Lady
TTITLE19=The Real Thing - Can't get by without you
EXTD=rlokker@worldonline.nl
EXTT0=
EXTT1=
EXTT2=
EXTT3=
EXTT4=
EXTT5=
EXTT6=
EXTT7=
EXTT8=
EXTT9=
EXTT10=
EXTT11=
EXTT12=
EXTT13=
EXTT14=
EXTT15=
EXTT16=
EXTT17=
EXTT18=
EXTT19=
PLAYORDER=
